<svg xmlns="http://www.w3.org/2000/svg" xmlns:xlink="http://www.w3.org/1999/xlink" preserveAspectRatio="xMidYMid" width="91" height="36" viewBox="0 0 91 36">
  <defs>
    <style>
      .cls-1 {
        fill: #FE6B3C;
        fill-rule: evenodd;
      }
    </style>
  </defs>
  <path d="M83.841,19.510 C83.348,19.510 84.499,15.662 84.060,15.662 C81.949,15.662 80.031,20.984 81.648,20.984 C82.361,20.984 86.555,20.929 86.555,23.331 C86.555,25.760 82.141,29.663 80.524,29.663 C78.907,29.663 77.865,28.244 78.578,28.244 C79.893,28.244 83.677,24.204 83.677,23.222 C83.677,23.222 77.783,24.122 77.783,19.701 C77.783,17.326 80.195,13.041 82.169,13.041 C84.170,13.041 86.939,12.796 86.939,14.870 C86.939,16.917 84.307,19.510 83.841,19.510 ZM75.648,30.782 C72.112,30.782 71.564,24.968 71.372,24.968 C71.152,24.968 69.754,28.216 67.589,28.216 C65.396,28.216 63.203,26.770 63.203,22.976 C63.203,19.401 65.176,13.533 69.234,13.533 C70.741,13.533 71.673,13.533 72.222,14.160 C72.770,10.066 73.510,5.727 73.510,5.590 C73.510,5.372 73.537,4.935 74.058,4.935 C74.607,4.935 77.019,5.754 77.019,6.737 C77.019,7.719 75.018,13.942 75.018,20.001 C75.018,30.482 76.882,30.782 75.648,30.782 ZM70.878,17.627 C70.878,17.026 71.509,14.815 70.495,14.815 C68.466,14.815 66.794,19.646 66.794,24.668 C66.794,25.678 67.369,27.316 68.192,27.316 C69.014,27.316 71.619,21.611 71.619,20.192 C71.619,19.619 71.673,18.855 71.756,17.954 C71.317,17.981 70.878,17.900 70.878,17.627 ZM61.370,28.517 C61.370,29.308 57.230,28.735 57.230,24.122 C57.230,21.093 57.806,17.463 58.190,15.361 C56.984,18.391 54.900,26.306 53.831,27.862 C53.804,27.998 53.749,28.080 53.612,28.134 C53.584,28.134 53.557,28.134 53.529,28.134 C53.447,28.162 53.338,28.189 53.200,28.189 C51.436,28.189 50.524,26.385 50.056,24.333 C49.112,26.673 47.953,28.901 46.872,29.281 C46.789,29.335 46.625,29.363 46.433,29.363 C43.856,29.363 43.226,24.041 43.034,24.041 C42.814,24.041 41.773,28.189 39.607,28.189 C37.441,28.189 35.687,26.743 35.687,22.949 C35.687,19.373 37.661,13.533 41.718,13.533 C44.541,13.533 46.543,13.533 46.543,17.517 C46.543,17.900 45.556,18.227 45.556,17.627 C45.556,16.999 45.364,14.788 44.350,14.788 C41.663,14.788 39.278,19.646 39.278,24.668 C39.278,25.678 39.388,27.316 40.210,27.316 C41.032,27.316 42.760,21.611 42.760,20.192 C42.760,19.646 42.760,18.664 44.404,18.664 C46.077,18.664 46.762,19.428 46.762,20.001 C46.762,20.165 46.762,20.301 46.762,20.438 C46.844,22.294 46.680,27.534 47.584,27.534 C47.890,27.534 48.884,25.102 49.777,22.731 C49.507,20.630 49.582,18.683 49.582,18.500 C49.582,18.009 49.280,18.200 49.280,17.709 C49.280,17.217 53.310,16.944 53.310,18.718 C53.310,19.292 53.200,22.239 53.200,23.140 C53.200,23.849 53.255,24.477 53.338,25.023 C54.379,21.557 56.737,14.406 58.711,13.287 C58.765,13.232 58.848,13.205 58.930,13.178 C59.040,13.151 59.122,13.123 59.231,13.123 C59.396,13.123 59.560,13.123 59.752,13.151 C60.191,13.151 60.438,13.205 60.520,13.287 C61.397,13.533 62.247,14.051 62.247,14.706 C62.247,16.016 60.849,21.775 60.849,23.849 C60.849,27.971 61.370,27.725 61.370,28.517 ZM33.442,19.292 C32.044,19.292 31.030,18.746 31.030,18.145 C31.030,17.545 31.496,15.198 31.496,15.198 C31.496,15.198 28.316,21.502 28.096,25.378 C28.398,27.370 28.809,27.889 28.809,28.353 C28.809,29.090 24.313,30.454 24.313,19.919 C24.313,17.135 24.670,13.069 25.602,13.069 C27.439,13.069 28.288,14.024 28.288,15.170 C28.288,16.289 27.740,17.654 27.740,19.728 C27.740,20.738 27.768,21.611 27.822,22.376 C28.535,18.800 30.838,12.659 32.099,12.659 C33.607,12.659 35.389,12.577 35.389,14.843 C35.389,17.108 34.813,19.292 33.442,19.292 ZM23.249,24.832 C22.235,28.380 13.874,33.293 8.610,33.293 C5.814,33.293 3.456,32.419 3.456,30.291 C3.456,27.834 15.436,23.522 21.440,21.530 C19.521,19.756 12.256,19.974 11.406,19.728 C11.132,19.646 10.940,19.401 10.776,19.155 C10.721,19.510 10.721,19.837 10.721,20.192 C10.721,23.522 11.845,24.614 10.611,24.614 C9.433,24.614 7.925,20.492 7.925,18.036 C7.925,13.232 9.899,7.255 10.913,7.255 C12.229,7.255 14.038,7.828 14.038,8.947 C14.038,9.630 12.695,11.622 11.708,14.515 C17.108,12.960 23.085,4.280 16.204,4.280 C7.596,4.280 3.566,13.505 2.881,13.505 C0.304,13.505 8.473,2.806 16.149,2.806 C24.565,2.806 20.069,11.922 14.532,16.426 C15.738,16.699 16.971,17.026 17.931,17.272 C20.453,18.036 24.538,20.520 23.249,24.832 ZM6.911,29.608 C12.393,29.608 21.111,25.624 21.906,22.922 C22.015,22.621 21.961,22.321 21.878,22.048 C15.436,24.395 2.058,29.608 6.911,29.608 Z" class="cls-1"/>
</svg>
