<svg xmlns="http://www.w3.org/2000/svg" xmlns:xlink="http://www.w3.org/1999/xlink" preserveAspectRatio="xMidYMid" width="50" height="24" viewBox="0 0 50 24">
  <defs>
    <style>
      .cls-1 {
        fill: #FE673C;
        fill-rule: evenodd;
      }
    </style>
  </defs>
  <path d="M47.840,9.245 C47.600,9.245 48.160,7.325 47.947,7.325 C46.920,7.325 45.986,9.981 46.773,9.981 C47.120,9.981 49.161,9.954 49.161,11.152 C49.161,12.365 47.013,14.313 46.226,14.313 C45.439,14.313 44.932,13.605 45.279,13.605 C45.919,13.605 47.760,11.588 47.760,11.098 C47.760,11.098 44.892,11.548 44.892,9.341 C44.892,8.155 46.066,6.017 47.026,6.017 C48.000,6.017 49.347,5.894 49.347,6.929 C49.347,7.951 48.067,9.245 47.840,9.245 ZM46.281,18.495 C45.427,20.348 39.572,23.440 36.757,22.091 C36.170,21.805 34.650,20.348 34.970,19.394 C35.503,17.855 39.505,17.596 39.345,17.950 C39.185,18.291 36.477,18.304 35.837,19.694 C34.943,21.642 44.254,20.607 45.601,17.678 C45.814,17.201 45.641,16.615 44.920,16.275 C43.947,15.798 42.773,15.784 41.759,15.907 C41.719,15.975 41.666,16.016 41.639,16.016 C41.586,16.016 41.546,15.988 41.506,15.934 C40.292,16.111 39.332,16.438 39.185,16.370 C38.985,16.275 38.585,15.607 38.865,14.980 C39.091,14.490 40.078,14.313 41.212,14.313 C41.212,14.286 41.212,14.258 41.212,14.231 C41.212,14.054 41.212,13.836 41.226,13.591 L41.212,13.591 C40.279,13.591 38.958,12.651 38.958,10.212 C38.958,8.305 40.852,5.458 41.546,5.458 C42.693,5.458 42.853,6.453 42.853,6.739 C42.853,7.038 40.319,8.251 40.319,11.575 C40.319,12.692 40.745,13.087 41.266,12.937 C41.319,12.133 41.412,11.330 41.519,11.330 C41.826,11.330 42.026,11.725 42.146,12.242 C42.733,11.493 43.226,10.199 43.226,8.578 C43.226,8.264 44.093,8.401 44.093,9.422 C44.093,10.226 43.387,12.351 42.226,13.223 C42.226,13.523 42.186,13.945 42.133,14.354 C43.240,14.449 44.320,14.681 44.854,14.940 C46.481,15.716 46.574,17.841 46.281,18.495 ZM38.093,13.741 C38.093,14.136 36.079,13.850 36.079,11.548 C36.079,10.035 36.359,8.224 36.546,7.175 C35.959,8.687 34.945,12.637 34.425,13.414 C34.411,13.482 34.385,13.523 34.318,13.550 C34.305,13.550 34.291,13.550 34.278,13.550 C34.238,13.564 34.185,13.577 34.118,13.577 C33.204,13.577 32.763,12.557 32.550,11.453 C32.120,12.451 31.552,13.455 31.038,13.455 C31.024,13.455 31.024,13.455 31.011,13.455 C29.277,13.455 29.064,10.907 29.064,9.654 C29.064,8.074 29.210,7.502 29.210,7.161 C29.210,6.562 30.891,7.093 30.891,7.774 C30.891,8.264 30.811,9.082 30.811,9.668 C30.811,11.125 31.091,12.038 31.318,12.556 C31.637,12.381 32.094,11.516 32.440,10.755 C32.323,9.744 32.357,8.830 32.357,8.741 C32.357,8.496 32.210,8.591 32.210,8.346 C32.210,8.101 34.171,7.965 34.171,8.850 C34.171,9.136 34.118,10.608 34.118,11.057 C34.118,11.411 34.145,11.725 34.185,11.997 C34.692,10.267 35.839,6.698 36.799,6.139 C36.826,6.112 36.866,6.098 36.906,6.085 C36.959,6.071 36.999,6.058 37.052,6.058 C37.133,6.058 37.213,6.058 37.306,6.071 C37.519,6.071 37.639,6.098 37.679,6.139 C38.106,6.262 38.520,6.521 38.520,6.848 C38.520,7.502 37.839,10.376 37.839,11.411 C37.839,13.468 38.093,13.346 38.093,13.741 ZM28.810,4.654 C28.810,3.960 29.384,3.987 30.051,3.987 C30.704,3.987 31.411,4.804 31.411,5.322 C31.411,6.548 28.810,5.336 28.810,4.654 ZM27.745,9.136 C27.064,9.136 26.571,8.864 26.571,8.564 C26.571,8.264 26.798,7.093 26.798,7.093 C26.798,7.093 25.250,10.240 25.144,12.174 C25.290,13.169 25.490,13.427 25.490,13.659 C25.490,13.969 23.943,14.486 23.453,11.504 C22.986,12.363 22.274,13.182 21.237,13.182 C19.383,13.182 18.275,11.479 18.275,10.117 C18.275,8.346 19.156,6.711 19.689,6.221 C20.236,5.731 21.517,5.812 21.930,6.017 C22.330,6.207 22.624,6.834 22.624,7.597 C22.624,9.027 21.957,9.777 21.090,9.777 C20.770,9.777 20.396,9.681 20.116,9.599 C20.010,10.948 20.823,12.324 21.557,12.324 C22.426,12.324 23.005,11.629 23.376,10.920 C23.332,10.488 23.303,10.009 23.303,9.450 C23.303,8.060 23.476,6.030 23.930,6.030 C24.823,6.030 25.237,6.507 25.237,7.079 C25.237,7.638 24.970,8.319 24.970,9.354 C24.970,9.858 24.984,10.294 25.010,10.676 C25.357,8.891 26.478,5.826 27.091,5.826 C27.825,5.826 28.692,5.785 28.692,6.916 C28.692,8.046 28.412,9.136 27.745,9.136 ZM21.423,7.038 C20.730,7.038 20.276,8.128 20.143,9.313 C21.837,10.049 22.104,7.038 21.423,7.038 ZM23.198,4.382 C22.118,4.723 19.757,5.104 17.583,5.281 C17.249,7.202 16.876,9.463 16.876,10.798 C16.876,14.422 18.036,14.722 17.236,14.722 C16.436,14.722 15.235,13.128 15.235,10.158 C15.235,8.768 15.489,6.984 15.755,5.376 C15.142,5.390 14.582,5.363 14.128,5.308 C14.068,5.301 14.018,5.280 13.959,5.271 C13.923,5.274 13.885,5.278 13.849,5.281 C13.515,7.202 13.142,9.463 13.142,10.798 C13.142,14.422 14.302,14.722 13.502,14.722 C12.836,14.722 11.901,13.601 11.604,11.517 C11.137,12.371 10.427,13.182 9.395,13.182 C7.541,13.182 6.434,11.479 6.434,10.117 C6.434,8.346 7.314,6.711 7.848,6.221 C8.394,5.731 9.675,5.812 10.089,6.017 C10.489,6.207 10.782,6.834 10.782,7.597 C10.782,9.027 10.115,9.777 9.248,9.777 C8.928,9.777 8.555,9.681 8.274,9.599 C8.168,10.948 8.981,12.324 9.715,12.324 C10.588,12.324 11.169,11.622 11.539,10.910 C11.521,10.666 11.501,10.424 11.501,10.158 C11.501,8.768 11.755,6.984 12.022,5.376 C11.408,5.390 10.848,5.363 10.394,5.308 C9.074,5.145 8.127,4.491 7.460,4.028 C7.180,3.837 7.326,3.660 7.513,3.701 C8.597,3.924 9.926,4.044 11.317,4.111 C11.278,4.084 11.231,4.054 11.194,4.028 C10.913,3.837 11.060,3.660 11.247,3.701 C11.574,3.768 11.923,3.826 12.289,3.877 L12.315,3.742 C12.515,2.666 12.675,1.848 12.675,1.549 C12.675,0.241 14.302,1.085 14.302,2.107 C14.302,2.380 14.222,2.938 14.116,3.701 L14.055,4.050 C14.605,4.089 15.166,4.120 15.739,4.141 C15.821,4.139 15.891,4.137 15.972,4.135 L16.049,3.742 C16.249,2.666 16.409,1.848 16.409,1.549 C16.409,0.241 18.036,1.085 18.036,2.107 C18.036,2.380 17.956,2.938 17.850,3.701 L17.782,4.090 C18.471,4.071 19.082,4.055 19.491,4.055 C19.631,4.060 19.691,4.094 19.720,4.135 C21.209,4.102 22.492,4.055 23.225,4.055 C23.612,4.069 23.532,4.273 23.198,4.382 ZM9.582,7.038 C8.888,7.038 8.434,8.128 8.301,9.313 C9.995,10.049 10.262,7.038 9.582,7.038 ZM4.100,13.809 C7.315,13.741 11.357,14.871 11.223,16.424 C11.157,17.214 10.717,17.596 10.250,17.555 C9.943,17.528 7.408,14.899 3.527,14.858 C2.873,15.784 2.180,16.125 1.593,16.125 C0.592,16.125 0.312,15.553 0.312,15.185 C0.312,14.967 0.419,14.585 1.006,14.272 C1.166,14.163 1.379,14.081 1.673,14.027 C1.846,13.972 2.033,13.931 2.246,13.904 C2.366,13.509 2.486,13.032 2.580,12.474 C2.967,10.253 3.060,3.742 3.220,2.775 C3.394,1.807 5.408,1.358 5.194,2.597 C5.061,3.347 5.048,9.409 4.567,12.215 C4.461,12.814 4.301,13.346 4.100,13.809 ZM1.193,15.757 C1.686,15.757 2.100,14.694 2.100,14.694 C0.872,14.694 0.712,15.757 1.193,15.757 Z" class="cls-1"/>
</svg>
