<svg xmlns="http://www.w3.org/2000/svg" xmlns:xlink="http://www.w3.org/1999/xlink" preserveAspectRatio="xMidYMid" width="50" height="29" viewBox="0 0 50 29">
  <defs>
    <style>
      .cls-1 {
        fill: #fff;
        fill-rule: evenodd;
      }
    </style>
  </defs>
  <path d="M46.061,19.989 C45.896,19.989 46.281,18.702 46.135,18.702 C45.429,18.702 44.787,20.482 45.328,20.482 C45.566,20.482 46.969,20.464 46.969,21.267 C46.969,22.080 45.493,23.385 44.952,23.385 C44.412,23.385 44.063,22.910 44.302,22.910 C44.742,22.910 46.006,21.559 46.006,21.231 C46.006,21.231 44.951,21.390 44.386,20.895 C44.105,21.613 43.549,22.627 42.579,22.627 C41.306,22.627 40.545,21.486 40.545,20.574 C40.545,19.387 41.150,18.292 41.516,17.963 C41.892,17.634 42.772,17.689 43.056,17.826 C43.331,17.954 43.533,18.374 43.533,18.885 C43.533,19.843 43.074,20.345 42.479,20.345 C42.259,20.345 42.002,20.281 41.810,20.227 C41.736,21.130 42.295,22.052 42.799,22.052 C43.562,22.052 44.001,21.293 44.229,20.725 C44.110,20.557 44.036,20.339 44.036,20.053 C44.036,19.259 44.842,17.826 45.502,17.826 C46.171,17.826 47.097,17.744 47.097,18.438 C47.097,19.122 46.217,19.989 46.061,19.989 ZM42.708,18.511 C42.231,18.511 41.920,19.241 41.828,20.035 C42.992,20.528 43.175,18.511 42.708,18.511 ZM39.850,23.759 C38.667,23.759 38.484,21.815 38.420,21.815 C38.347,21.815 37.879,22.901 37.155,22.901 C36.566,22.901 35.983,22.580 35.775,21.799 C35.475,22.506 35.123,23.141 34.792,23.257 C34.764,23.275 34.709,23.285 34.645,23.285 C33.784,23.285 33.573,21.505 33.509,21.505 C33.435,21.505 33.087,22.892 32.363,22.892 C31.639,22.892 31.052,22.408 31.052,21.139 C31.052,19.944 31.712,17.990 33.069,17.990 C34.013,17.990 34.682,17.990 34.682,19.323 C34.682,19.451 34.352,19.560 34.352,19.360 C34.352,19.150 34.288,18.410 33.949,18.410 C33.050,18.410 32.253,20.035 32.253,21.715 C32.253,22.052 32.290,22.600 32.565,22.600 C32.840,22.600 33.417,20.692 33.417,20.218 C33.417,20.035 33.417,19.706 33.967,19.706 C34.526,19.706 34.755,19.962 34.755,20.154 C34.755,20.208 34.755,20.254 34.755,20.300 C34.783,20.920 34.728,22.673 35.030,22.673 C35.125,22.673 35.416,21.976 35.696,21.244 C35.695,21.211 35.689,21.183 35.689,21.149 C35.689,19.953 36.349,17.990 37.705,17.990 C38.209,17.990 38.521,17.990 38.704,18.200 C38.887,16.831 39.135,15.380 39.135,15.334 C39.135,15.261 39.144,15.115 39.318,15.115 C39.501,15.115 40.308,15.389 40.308,15.717 C40.308,16.046 39.639,18.127 39.639,20.154 C39.639,23.659 40.262,23.759 39.850,23.759 ZM38.255,19.360 C38.255,19.159 38.466,18.419 38.127,18.419 C37.448,18.419 36.889,20.035 36.889,21.715 C36.889,22.052 37.082,22.600 37.357,22.600 C37.632,22.600 38.502,20.692 38.502,20.218 C38.502,20.026 38.521,19.770 38.548,19.469 C38.402,19.478 38.255,19.451 38.255,19.360 ZM30.348,23.759 C29.166,23.759 28.982,21.815 28.918,21.815 C28.845,21.815 28.378,22.901 27.654,22.901 C27.077,22.901 26.506,22.595 26.286,21.849 C26.022,22.370 25.713,22.810 25.427,22.810 C25.418,22.810 25.418,22.810 25.409,22.810 C24.217,22.810 24.071,21.103 24.071,20.263 C24.071,19.204 24.171,18.821 24.171,18.593 C24.171,18.191 25.326,18.547 25.326,19.004 C25.326,19.332 25.271,19.880 25.271,20.272 C25.271,21.249 25.464,21.861 25.620,22.207 C25.785,22.119 26.004,21.765 26.204,21.379 C26.198,21.303 26.187,21.232 26.187,21.149 C26.187,19.953 26.847,17.990 28.203,17.990 C28.707,17.990 29.019,17.990 29.202,18.200 C29.386,16.831 29.633,15.380 29.633,15.334 C29.633,15.261 29.642,15.115 29.816,15.115 C30.000,15.115 30.806,15.389 30.806,15.717 C30.806,16.046 30.137,18.127 30.137,20.154 C30.137,23.659 30.760,23.759 30.348,23.759 ZM28.753,19.360 C28.753,19.159 28.964,18.419 28.625,18.419 C27.947,18.419 27.388,20.035 27.388,21.715 C27.388,22.052 27.580,22.600 27.855,22.600 C28.130,22.600 29.001,20.692 29.001,20.218 C29.001,20.026 29.019,19.770 29.047,19.469 C28.900,19.478 28.753,19.451 28.753,19.360 ZM23.897,16.913 C23.897,16.448 24.291,16.466 24.749,16.466 C25.198,16.466 25.684,17.014 25.684,17.360 C25.684,18.182 23.897,17.370 23.897,16.913 ZM23.595,23.622 C23.135,23.647 22.364,22.957 22.154,21.621 C21.869,22.235 21.511,22.810 21.185,22.810 C21.176,22.810 21.176,22.810 21.167,22.810 C19.975,22.810 19.828,21.103 19.828,20.263 C19.828,19.204 19.929,18.821 19.929,18.593 C19.929,18.191 21.084,18.547 21.084,19.004 C21.084,19.332 21.029,19.880 21.029,20.272 C21.029,21.249 21.222,21.861 21.377,22.207 C21.582,22.098 21.869,21.586 22.100,21.104 C22.024,19.421 22.595,15.670 22.568,15.225 C22.541,14.485 23.705,14.914 23.732,15.480 C23.760,16.055 23.201,20.108 23.256,21.432 C23.356,23.458 24.117,23.604 23.595,23.622 ZM19.654,16.913 C19.654,16.448 20.048,16.466 20.507,16.466 C20.956,16.466 21.442,17.014 21.442,17.360 C21.442,18.182 19.654,17.370 19.654,16.913 ZM17.850,23.157 C17.318,23.157 16.915,22.819 17.428,22.819 C18.565,22.819 18.409,18.702 18.088,18.702 C17.465,18.702 16.842,21.422 16.695,22.107 C16.952,22.728 17.227,22.910 16.961,22.910 C16.151,22.910 15.711,22.325 15.484,21.497 C15.161,22.317 14.756,23.124 14.378,23.257 C14.350,23.275 14.295,23.285 14.231,23.285 C13.370,23.285 13.159,21.505 13.095,21.505 C13.021,21.505 12.673,22.892 11.949,22.892 C11.225,22.892 10.638,22.408 10.638,21.139 C10.638,19.944 11.298,17.990 12.655,17.990 C13.599,17.990 14.268,17.990 14.268,19.323 C14.268,19.451 13.938,19.560 13.938,19.360 C13.938,19.150 13.874,18.410 13.535,18.410 C12.636,18.410 11.839,20.035 11.839,21.715 C11.839,22.052 11.876,22.600 12.151,22.600 C12.426,22.600 13.003,20.692 13.003,20.218 C13.003,20.035 13.003,19.706 13.553,19.706 C14.112,19.706 14.341,19.962 14.341,20.154 C14.341,20.208 14.341,20.254 14.341,20.300 C14.369,20.920 14.314,22.673 14.616,22.673 C14.721,22.673 15.069,21.813 15.374,20.999 C15.295,20.519 15.266,19.990 15.266,19.460 C15.266,18.282 15.586,16.119 15.586,16.046 C15.586,15.982 15.595,15.836 15.779,15.836 C15.953,15.836 16.759,16.110 16.759,16.439 C16.759,16.758 16.393,18.365 16.393,20.391 C16.393,20.920 16.457,21.340 16.549,21.669 C16.704,20.729 17.181,18.730 17.548,18.374 C17.841,18.072 18.547,18.246 18.666,18.328 C19.830,19.104 19.876,23.157 17.850,23.157 ZM11.208,18.739 C10.777,18.593 10.310,18.501 9.833,18.465 C9.778,19.314 9.732,20.263 9.732,21.149 C9.732,22.536 10.227,22.956 9.732,22.974 C8.853,22.974 8.678,20.574 8.688,18.456 C8.367,18.483 8.046,18.520 7.734,18.575 C7.707,19.524 7.643,20.519 7.505,21.295 C7.157,23.257 5.956,24.143 5.352,24.033 C4.737,23.924 5.782,23.887 6.204,21.477 C6.314,20.847 6.369,19.871 6.406,18.885 C5.663,19.122 5.031,19.414 4.618,19.716 C4.343,19.807 4.050,18.921 4.123,18.784 C4.197,18.638 5.104,18.246 6.424,18.045 C6.442,17.534 6.451,17.059 6.461,16.658 C6.461,15.790 6.552,13.992 5.663,13.992 C4.408,13.992 3.262,15.854 3.262,16.621 C3.262,17.032 2.941,17.132 2.941,16.639 C2.941,15.571 4.215,13.618 5.828,13.618 C6.974,13.618 7.753,14.987 7.753,17.771 C7.753,17.817 7.753,17.872 7.753,17.917 C8.055,17.908 8.376,17.917 8.697,17.936 C8.724,16.621 8.807,15.507 8.798,15.307 C8.788,15.069 8.807,14.923 9.219,14.914 C9.622,14.905 10.044,15.416 10.053,15.727 C10.053,15.863 9.952,16.831 9.861,18.082 C10.246,18.155 10.649,18.264 11.043,18.401 C11.400,18.520 11.364,18.794 11.208,18.739 Z" class="cls-1"/>
  <path d="M38.615,12.139 C38.482,12.234 38.322,12.331 38.137,12.431 C37.951,12.530 37.753,12.632 37.544,12.737 C37.334,12.841 37.153,12.941 37.001,13.035 C37.001,13.339 36.956,13.597 36.865,13.811 C36.775,14.024 36.661,14.197 36.523,14.330 C36.384,14.463 36.235,14.558 36.073,14.614 C35.911,14.671 35.758,14.700 35.616,14.700 C35.396,14.700 35.216,14.640 35.073,14.522 C34.930,14.403 34.859,14.249 34.859,14.060 C34.859,13.946 34.904,13.827 34.994,13.704 C35.085,13.581 35.194,13.462 35.323,13.348 C35.451,13.235 35.580,13.135 35.708,13.050 C35.837,12.964 35.944,12.898 36.030,12.850 C35.973,12.509 35.920,12.187 35.873,11.883 C35.825,11.580 35.801,11.281 35.801,10.987 C35.573,11.214 35.344,11.447 35.116,11.684 C34.887,11.921 34.692,12.177 34.530,12.452 C34.473,12.528 34.406,12.566 34.330,12.566 C34.263,12.566 34.209,12.542 34.166,12.495 C34.123,12.447 34.102,12.386 34.102,12.310 L34.102,12.239 C34.216,11.983 34.368,11.715 34.559,11.435 C34.749,11.155 34.944,10.887 35.144,10.631 C35.344,10.375 35.530,10.138 35.701,9.920 C35.873,9.702 35.996,9.522 36.073,9.379 C36.073,9.285 36.127,9.218 36.237,9.180 C36.346,9.142 36.420,9.123 36.458,9.123 C36.573,9.123 36.665,9.161 36.737,9.237 C36.808,9.313 36.844,9.427 36.844,9.579 C36.711,10.053 36.644,10.522 36.644,10.987 C36.644,11.234 36.668,11.471 36.715,11.698 C36.763,11.926 36.820,12.163 36.887,12.409 C37.153,12.277 37.418,12.153 37.680,12.040 C37.941,11.926 38.201,11.812 38.458,11.698 C38.515,11.679 38.558,11.670 38.587,11.670 C38.663,11.670 38.720,11.693 38.758,11.741 C38.796,11.788 38.815,11.840 38.815,11.897 C38.815,11.964 38.748,12.044 38.615,12.139 ZM34.402,13.035 C34.402,13.092 34.382,13.154 34.345,13.220 C34.297,13.268 34.218,13.358 34.109,13.491 C33.999,13.623 33.873,13.761 33.730,13.903 C33.588,14.045 33.428,14.173 33.252,14.287 C33.076,14.401 32.902,14.458 32.731,14.458 C32.597,14.458 32.488,14.417 32.402,14.337 C32.316,14.256 32.252,14.154 32.209,14.031 C32.166,13.908 32.138,13.780 32.123,13.647 C32.109,13.514 32.102,13.391 32.102,13.277 C32.045,13.334 31.971,13.401 31.881,13.476 C31.790,13.552 31.692,13.628 31.588,13.704 C31.483,13.780 31.378,13.844 31.274,13.896 C31.169,13.948 31.078,13.974 31.002,13.974 C30.754,13.974 30.555,13.894 30.402,13.732 C30.400,13.730 30.399,13.726 30.397,13.723 C30.383,13.751 30.384,13.771 30.359,13.804 C30.302,13.880 30.231,13.955 30.145,14.031 C30.059,14.107 29.967,14.171 29.867,14.223 C29.767,14.275 29.674,14.301 29.588,14.301 C29.417,14.301 29.283,14.214 29.188,14.038 C29.093,13.863 29.021,13.659 28.974,13.427 C28.926,13.194 28.893,12.969 28.874,12.751 C28.855,12.533 28.831,12.381 28.802,12.296 C28.640,12.429 28.507,12.578 28.403,12.744 C28.298,12.910 28.203,13.080 28.117,13.256 C28.031,13.431 27.943,13.609 27.853,13.789 C27.762,13.970 27.650,14.135 27.517,14.287 C27.431,14.344 27.346,14.373 27.260,14.373 C27.165,14.373 27.086,14.342 27.024,14.280 C26.962,14.218 26.915,14.138 26.881,14.038 C26.859,13.971 26.850,13.896 26.838,13.823 C26.767,13.867 26.701,13.914 26.617,13.953 C26.484,14.015 26.348,14.064 26.210,14.102 C26.072,14.140 25.965,14.159 25.889,14.159 C25.622,14.159 25.391,14.022 25.196,13.747 C25.001,13.472 24.903,13.083 24.903,12.580 C24.903,12.381 24.912,12.187 24.932,11.997 C24.951,11.807 24.970,11.646 24.989,11.513 C24.808,11.750 24.646,12.002 24.503,12.267 C24.360,12.533 24.222,12.798 24.089,13.064 C24.041,13.149 23.994,13.251 23.946,13.370 C23.898,13.488 23.844,13.600 23.782,13.704 C23.720,13.808 23.646,13.896 23.560,13.967 C23.475,14.038 23.375,14.074 23.261,14.074 C23.156,14.074 23.070,14.041 23.003,13.974 C22.937,13.908 22.894,13.808 22.875,13.676 C22.875,13.599 22.893,13.510 22.901,13.429 C22.552,13.691 22.231,13.904 21.961,14.024 C21.608,14.181 21.309,14.259 21.061,14.259 C20.775,14.259 20.568,14.166 20.440,13.981 C20.311,13.796 20.247,13.562 20.247,13.277 C20.247,12.756 20.318,12.293 20.461,11.890 C20.604,11.487 20.751,11.106 20.904,10.745 C21.018,10.603 21.118,10.532 21.204,10.532 C21.309,10.532 21.361,10.622 21.361,10.802 C21.285,11.267 21.211,11.698 21.140,12.096 C21.068,12.495 21.032,12.817 21.032,13.064 C21.032,13.329 21.085,13.467 21.190,13.476 C21.256,13.505 21.332,13.519 21.418,13.519 C21.647,13.519 21.904,13.453 22.189,13.320 C22.475,13.187 22.718,13.016 22.918,12.808 C22.959,12.794 22.985,12.791 23.011,12.787 C23.031,12.706 23.046,12.625 23.068,12.545 C23.120,12.350 23.175,12.163 23.232,11.983 C23.289,11.803 23.337,11.632 23.375,11.471 L23.375,11.456 C23.384,11.371 23.391,11.269 23.396,11.150 C23.401,11.032 23.410,10.918 23.425,10.809 C23.439,10.700 23.463,10.608 23.496,10.532 C23.529,10.456 23.589,10.418 23.675,10.418 C23.798,10.418 23.875,10.475 23.903,10.589 L23.918,10.589 C23.927,10.702 23.937,10.816 23.946,10.930 C23.955,11.044 23.960,11.158 23.960,11.271 C23.960,11.300 23.958,11.331 23.953,11.364 C23.948,11.397 23.946,11.433 23.946,11.471 C24.013,11.347 24.103,11.193 24.217,11.008 C24.332,10.823 24.453,10.645 24.582,10.475 C24.710,10.304 24.839,10.157 24.967,10.034 C25.096,9.911 25.208,9.849 25.303,9.849 C25.532,9.849 25.693,9.911 25.789,10.034 C25.884,10.157 25.932,10.276 25.932,10.389 C25.932,10.797 25.893,11.198 25.817,11.591 C25.741,11.985 25.703,12.381 25.703,12.779 C25.703,12.884 25.705,12.988 25.710,13.092 C25.715,13.197 25.727,13.301 25.746,13.405 L25.974,13.576 L26.760,13.334 C26.783,13.326 26.789,13.327 26.806,13.323 C26.808,13.084 26.822,12.844 26.853,12.601 C26.886,12.341 26.917,12.101 26.946,11.883 C27.012,11.428 27.079,10.970 27.146,10.510 C27.212,10.050 27.291,9.593 27.381,9.138 C27.472,8.682 27.581,8.234 27.710,7.793 C27.838,7.352 27.998,6.923 28.188,6.506 C28.283,6.297 28.398,6.079 28.531,5.851 C28.664,5.624 28.817,5.417 28.988,5.233 C29.160,5.048 29.347,4.894 29.552,4.770 C29.757,4.647 29.978,4.585 30.217,4.585 C30.521,4.585 30.781,4.697 30.995,4.920 C31.209,5.143 31.316,5.434 31.316,5.794 C31.316,6.326 31.219,6.821 31.024,7.281 C30.828,7.741 30.578,8.170 30.274,8.568 C29.969,8.967 29.628,9.337 29.252,9.678 C28.876,10.020 28.507,10.342 28.145,10.645 L28.017,10.745 C27.969,11.020 27.926,11.295 27.888,11.570 C27.850,11.845 27.817,12.120 27.788,12.395 C27.836,12.338 27.900,12.262 27.981,12.168 C28.062,12.073 28.150,11.983 28.245,11.897 C28.340,11.812 28.438,11.739 28.538,11.677 C28.638,11.615 28.726,11.584 28.802,11.584 C28.850,11.584 28.893,11.589 28.931,11.599 C29.150,11.693 29.295,11.819 29.367,11.976 C29.438,12.132 29.481,12.308 29.495,12.502 C29.509,12.696 29.517,12.898 29.517,13.106 C29.517,13.315 29.545,13.524 29.602,13.732 C29.631,13.732 29.650,13.737 29.659,13.747 C29.736,13.680 29.828,13.604 29.938,13.519 C30.047,13.434 30.140,13.391 30.217,13.391 C30.219,13.391 30.220,13.393 30.223,13.393 C30.195,13.293 30.174,13.187 30.174,13.064 C30.174,12.665 30.233,12.281 30.352,11.912 C30.471,11.542 30.626,11.212 30.817,10.923 C31.007,10.634 31.219,10.404 31.452,10.233 C31.685,10.062 31.911,9.977 32.131,9.977 C32.340,9.977 32.511,10.048 32.645,10.190 C32.778,10.332 32.845,10.499 32.845,10.688 L32.845,10.745 C32.845,10.773 32.842,10.797 32.838,10.816 C32.833,10.835 32.826,10.854 32.816,10.873 C32.835,10.873 32.852,10.871 32.866,10.866 C32.880,10.861 32.897,10.859 32.916,10.859 C33.049,10.859 33.149,10.904 33.216,10.994 C33.283,11.084 33.316,11.205 33.316,11.357 C33.288,11.480 33.247,11.637 33.195,11.826 C33.142,12.016 33.088,12.213 33.030,12.417 C32.973,12.621 32.923,12.822 32.880,13.021 C32.838,13.220 32.816,13.396 32.816,13.547 C32.816,13.633 32.826,13.714 32.845,13.789 C32.988,13.780 33.121,13.723 33.245,13.619 C33.368,13.514 33.488,13.403 33.602,13.284 C33.716,13.166 33.821,13.057 33.916,12.957 C34.011,12.858 34.097,12.808 34.173,12.808 C34.325,12.808 34.402,12.884 34.402,13.035 ZM28.488,9.550 C28.745,9.294 28.995,9.026 29.238,8.746 C29.481,8.467 29.695,8.175 29.881,7.871 C30.067,7.568 30.217,7.248 30.331,6.911 C30.445,6.575 30.502,6.212 30.502,5.823 C30.502,5.728 30.471,5.652 30.409,5.595 C30.347,5.538 30.269,5.510 30.174,5.510 C29.993,5.510 29.824,5.595 29.667,5.766 C29.509,5.937 29.369,6.143 29.245,6.385 C29.121,6.627 29.012,6.885 28.917,7.160 C28.821,7.435 28.740,7.677 28.674,7.886 C28.569,8.218 28.476,8.545 28.395,8.867 C28.314,9.190 28.240,9.517 28.174,9.849 L28.488,9.550 ZM32.388,10.773 L32.373,10.674 L32.045,10.560 C31.873,10.674 31.724,10.816 31.595,10.987 C31.466,11.158 31.359,11.345 31.274,11.549 C31.188,11.753 31.124,11.964 31.081,12.182 C31.038,12.400 31.016,12.613 31.016,12.822 L31.016,12.993 C31.216,12.879 31.378,12.737 31.502,12.566 C31.626,12.395 31.740,12.215 31.845,12.025 C31.950,11.836 32.054,11.651 32.159,11.471 C32.264,11.290 32.392,11.134 32.545,11.001 C32.440,10.963 32.388,10.887 32.388,10.773 ZM21.632,8.682 C21.556,8.682 21.487,8.647 21.425,8.576 C21.363,8.504 21.332,8.436 21.332,8.369 C21.332,8.294 21.361,8.227 21.418,8.170 C21.475,8.113 21.542,8.085 21.618,8.085 C21.704,8.085 21.775,8.109 21.832,8.156 C21.880,8.232 21.904,8.303 21.904,8.369 C21.904,8.455 21.877,8.528 21.825,8.590 C21.773,8.652 21.708,8.682 21.632,8.682 ZM19.847,15.738 C19.799,15.738 19.723,15.719 19.618,15.681 C19.514,15.643 19.437,15.596 19.390,15.539 C19.256,15.378 19.166,15.136 19.118,14.814 C19.071,14.491 19.047,14.131 19.047,13.732 C19.047,13.476 19.054,13.218 19.068,12.957 C19.083,12.696 19.102,12.447 19.126,12.210 C19.149,11.973 19.171,11.753 19.190,11.549 C19.209,11.345 19.228,11.177 19.247,11.044 L19.290,10.503 C19.118,10.759 18.911,11.065 18.669,11.421 C18.426,11.776 18.178,12.113 17.926,12.431 C17.673,12.749 17.442,13.021 17.233,13.249 C17.024,13.476 16.871,13.590 16.776,13.590 C16.662,13.590 16.571,13.536 16.505,13.427 C16.438,13.318 16.405,13.187 16.405,13.035 C16.405,12.836 16.428,12.594 16.476,12.310 C16.524,12.025 16.581,11.736 16.647,11.442 C16.714,11.148 16.781,10.866 16.847,10.596 C16.914,10.325 16.971,10.105 17.019,9.934 C17.095,9.631 17.133,9.327 17.133,9.024 C17.133,8.948 17.128,8.867 17.119,8.782 C17.109,8.697 17.095,8.616 17.076,8.540 C17.000,8.540 16.895,8.599 16.762,8.718 C16.628,8.837 16.493,8.972 16.355,9.123 C16.216,9.275 16.088,9.424 15.969,9.571 C15.850,9.719 15.771,9.825 15.733,9.891 C15.505,10.224 15.295,10.570 15.105,10.930 C14.914,11.290 14.721,11.651 14.526,12.011 C14.331,12.372 14.124,12.722 13.905,13.064 C13.686,13.405 13.434,13.718 13.148,14.003 C13.034,14.069 12.938,14.102 12.862,14.102 C12.596,14.102 12.448,13.951 12.420,13.647 C12.429,13.476 12.472,13.296 12.548,13.106 C12.624,12.917 12.710,12.725 12.805,12.530 C12.900,12.336 13.000,12.149 13.105,11.968 C13.210,11.788 13.300,11.622 13.377,11.471 C13.548,11.120 13.693,10.828 13.812,10.596 C13.931,10.363 14.041,10.138 14.141,9.920 C14.241,9.702 14.336,9.467 14.426,9.216 C14.517,8.965 14.614,8.654 14.719,8.284 C14.786,8.056 14.838,7.827 14.876,7.594 C14.914,7.362 14.933,7.141 14.933,6.933 C14.933,6.667 14.898,6.451 14.826,6.285 C14.755,6.119 14.624,6.036 14.434,6.036 C14.300,6.036 14.145,6.081 13.969,6.171 C13.793,6.262 13.581,6.406 13.334,6.605 C12.886,6.994 12.560,7.366 12.355,7.722 C12.150,8.078 12.048,8.407 12.048,8.711 C12.048,9.014 12.124,9.318 12.277,9.621 C12.429,9.925 12.610,10.261 12.819,10.631 C12.819,10.717 12.798,10.781 12.755,10.823 C12.712,10.866 12.662,10.887 12.605,10.887 C12.500,10.887 12.420,10.835 12.362,10.731 C12.077,10.257 11.848,9.856 11.677,9.529 C11.505,9.202 11.420,8.881 11.420,8.568 C11.420,8.332 11.477,8.083 11.591,7.822 C11.705,7.561 11.891,7.265 12.148,6.933 C12.253,6.790 12.405,6.632 12.605,6.456 C12.805,6.281 13.027,6.117 13.269,5.965 C13.512,5.814 13.762,5.688 14.019,5.588 C14.276,5.489 14.514,5.439 14.733,5.439 C15.038,5.439 15.278,5.555 15.455,5.787 C15.631,6.020 15.719,6.430 15.719,7.018 C15.719,7.350 15.690,7.670 15.633,7.978 C15.576,8.286 15.500,8.568 15.405,8.825 L15.476,8.753 C15.800,8.393 16.117,8.118 16.426,7.928 C16.735,7.739 17.000,7.644 17.219,7.644 C17.723,7.644 17.976,8.104 17.976,9.024 C17.976,9.517 17.909,10.012 17.776,10.510 C17.642,11.008 17.523,11.499 17.419,11.983 L17.362,12.139 C17.409,12.092 17.450,12.042 17.483,11.990 C17.516,11.938 17.557,11.888 17.604,11.840 C17.623,11.812 17.654,11.772 17.697,11.719 C17.740,11.667 17.821,11.561 17.940,11.399 C18.059,11.238 18.238,10.996 18.476,10.674 C18.714,10.352 19.037,9.911 19.447,9.351 C19.476,9.332 19.506,9.322 19.540,9.322 C19.573,9.322 19.599,9.322 19.618,9.322 C19.752,9.322 19.849,9.389 19.911,9.522 C19.973,9.655 20.004,9.806 20.004,9.977 C20.004,10.176 19.983,10.378 19.940,10.581 C19.897,10.785 19.866,10.968 19.847,11.129 C19.799,11.556 19.747,11.995 19.690,12.445 C19.633,12.896 19.604,13.348 19.604,13.804 C19.604,14.050 19.616,14.292 19.640,14.529 C19.663,14.766 19.709,14.998 19.776,15.226 L20.004,15.297 C20.090,15.373 20.133,15.449 20.133,15.525 C20.133,15.582 20.109,15.632 20.061,15.674 C20.013,15.717 19.942,15.738 19.847,15.738 Z" class="cls-1"/>
</svg>
