<svg xmlns="http://www.w3.org/2000/svg" xmlns:xlink="http://www.w3.org/1999/xlink" preserveAspectRatio="xMidYMid" width="150" height="103" viewBox="0 0 150 103">
  <defs>
    <style>
      .cls-1 {
        fill: #fff;
        fill-rule: evenodd;
      }
    </style>
  </defs>
  <path d="M146.644,69.850 C145.896,70.190 145.233,70.361 144.656,70.361 C143.228,70.361 141.750,69.866 140.221,68.878 C138.589,67.822 137.672,67.276 137.468,67.242 C133.423,68.980 129.889,69.850 126.865,69.850 C124.520,69.850 122.634,69.372 121.206,68.418 C119.507,67.260 118.657,65.572 118.657,63.356 C118.657,61.175 120.254,58.312 123.449,54.767 C123.721,54.494 124.078,54.085 124.520,53.540 C123.364,51.188 122.634,49.620 122.328,48.836 C121.716,47.166 121.410,45.461 121.410,43.723 C121.410,40.929 122.217,38.628 123.832,36.821 C125.445,35.014 127.629,34.111 130.382,34.111 C132.319,34.111 133.942,34.742 135.250,36.003 C136.558,37.264 137.213,38.866 137.213,40.809 C137.213,41.866 137.094,42.769 136.856,43.518 C136.312,45.087 133.390,48.598 128.088,54.051 C128.156,54.835 129.625,56.684 132.498,59.598 C135.369,62.513 137.162,63.970 137.876,63.970 C138.453,63.970 139.549,63.382 141.164,62.206 C142.777,61.030 143.585,60.186 143.585,59.675 C143.585,59.028 142.752,58.448 141.087,57.937 C139.728,57.494 138.606,57.272 137.723,57.272 C136.839,57.272 135.990,57.494 135.174,57.937 C134.698,57.699 134.460,57.374 134.460,56.965 C134.460,55.977 135.174,55.482 136.601,55.482 C143.636,55.482 147.153,56.389 147.153,58.203 C147.153,60.495 144.825,63.011 140.170,65.749 C140.577,66.399 141.299,67.015 142.336,67.597 C143.372,68.178 144.281,68.469 145.063,68.469 C145.301,68.469 145.658,68.350 146.134,68.111 C146.609,67.873 146.983,67.753 147.255,67.753 C147.357,67.753 147.595,67.822 147.969,67.958 L147.969,68.520 C147.969,68.997 147.527,69.441 146.644,69.850 ZM131.745,46.382 C133.691,43.825 134.664,41.610 134.664,39.735 C134.664,38.610 134.305,37.690 133.588,36.974 C132.871,36.258 131.949,35.900 130.823,35.900 C128.944,35.900 127.314,36.702 125.931,38.303 C124.548,39.906 123.857,41.661 123.857,43.570 C123.857,44.661 124.113,46.058 124.626,47.762 C125.171,49.603 125.769,50.881 126.418,51.597 C128.330,50.234 130.106,48.496 131.745,46.382 ZM126.049,55.994 C123.194,59.096 121.767,61.925 121.767,64.481 C121.767,65.777 122.243,66.646 123.194,67.089 C123.840,67.430 124.877,67.600 126.304,67.600 C127.289,67.600 128.853,67.344 130.994,66.833 C133.441,66.288 134.766,65.743 134.970,65.197 C131.877,62.640 128.904,59.573 126.049,55.994 ZM113.637,50.972 C113.044,50.972 114.427,46.314 113.900,46.314 C111.364,46.314 109.059,52.755 111.002,52.755 C111.858,52.755 116.897,52.689 116.897,55.596 C116.897,58.536 111.595,63.259 109.652,63.259 C107.709,63.259 106.457,61.541 107.314,61.541 C108.895,61.541 113.439,56.653 113.439,55.464 C113.439,55.464 109.893,56.000 107.821,54.416 C106.588,57.935 104.772,62.206 103.103,62.797 C103.004,62.863 102.806,62.896 102.576,62.896 C99.480,62.896 98.723,56.455 98.492,56.455 C98.229,56.455 96.977,61.475 94.376,61.475 C91.774,61.475 89.666,59.725 89.666,55.133 C89.666,50.806 92.037,43.738 96.911,43.738 C100.303,43.738 102.708,43.738 102.708,48.560 C102.708,49.023 101.522,49.419 101.522,48.692 C101.522,47.933 101.291,45.257 100.073,45.257 C96.845,45.257 93.980,51.137 93.980,57.214 C93.980,58.437 94.112,60.418 95.100,60.418 C96.088,60.418 98.163,53.515 98.163,51.797 C98.163,51.137 98.163,49.948 100.139,49.948 C102.148,49.948 102.971,50.872 102.971,51.566 C102.971,51.764 102.971,51.929 102.971,52.095 C103.070,54.341 102.872,60.683 103.959,60.683 C104.380,60.683 105.884,56.820 107.051,53.630 C106.626,53.023 106.359,52.235 106.359,51.203 C106.359,48.329 109.257,43.143 111.628,43.143 C114.032,43.143 117.358,42.846 117.358,45.356 C117.358,47.834 114.197,50.972 113.637,50.972 ZM86.972,61.607 C82.658,61.607 82.723,52.623 82.723,52.623 C82.723,52.623 80.089,61.013 79.002,61.013 C77.915,61.013 75.215,60.517 75.215,57.578 C75.215,54.605 76.960,44.696 75.873,44.696 C73.963,44.696 72.547,56.785 71.493,60.650 C71.724,61.541 71.757,61.839 70.933,61.839 C68.599,61.839 67.642,59.422 67.259,56.608 C66.104,58.632 64.375,60.517 61.880,60.517 C57.303,60.517 54.569,56.389 54.569,53.086 C54.569,48.792 56.743,44.828 58.060,43.639 C59.410,42.450 62.572,42.648 63.593,43.143 C64.581,43.606 65.305,45.125 65.305,46.975 C65.305,50.443 63.659,52.260 61.518,52.260 C60.728,52.260 59.805,52.029 59.114,51.830 C58.850,55.100 60.859,58.437 62.671,58.437 C64.772,58.437 66.191,56.818 67.109,55.137 C66.948,52.895 67.047,50.622 67.047,49.254 C67.047,48.758 66.652,48.758 66.652,48.263 C66.652,47.272 71.296,47.834 71.296,49.749 C71.296,51.665 70.933,53.911 70.933,56.290 C70.933,56.785 70.933,57.214 70.966,57.578 C71.658,53.449 73.667,42.912 76.532,42.912 C82.196,42.912 79.200,56.256 79.595,56.256 C79.957,56.256 82.196,48.197 83.876,48.197 C85.556,48.197 87.466,48.626 87.466,50.410 C87.466,51.500 87.038,53.152 87.038,55.332 C87.038,60.121 88.355,61.607 86.972,61.607 ZM62.341,45.621 C60.629,45.621 59.509,48.263 59.180,51.137 C63.362,52.920 64.021,45.621 62.341,45.621 ZM69.598,41.110 C65.034,41.227 58.185,40.937 51.378,40.548 C50.838,54.019 50.121,71.506 50.242,79.183 C50.600,98.149 53.304,99.516 51.447,99.687 C49.623,99.943 46.398,91.913 46.137,76.364 C45.972,67.577 46.549,52.528 47.068,40.289 C38.258,39.738 30.380,39.124 28.768,39.144 C26.831,39.144 26.054,38.605 26.049,37.931 C26.040,36.825 28.105,35.355 30.535,35.295 C32.374,35.249 39.364,35.652 47.248,36.078 C47.575,28.515 47.835,22.644 47.799,21.090 C47.701,14.170 51.838,18.185 51.936,23.482 C51.966,25.165 51.793,30.032 51.546,36.306 C59.470,36.720 67.523,37.083 71.680,36.994 C85.690,36.634 85.319,29.166 85.928,30.930 C87.767,35.697 81.083,40.849 69.598,41.110 ZM81.652,21.843 C81.059,21.843 82.442,17.186 81.915,17.186 C79.380,17.186 77.074,23.627 79.017,23.627 C79.874,23.627 84.912,23.561 84.912,26.468 C84.912,29.407 79.610,34.131 77.667,34.131 C75.724,34.131 74.473,32.413 75.329,32.413 C76.910,32.413 81.454,27.525 81.454,26.335 C81.454,26.335 77.664,26.910 75.631,25.120 C74.624,27.719 72.625,31.389 69.141,31.389 C64.563,31.389 61.830,27.260 61.830,23.957 C61.830,19.663 64.003,15.700 65.321,14.510 C66.671,13.321 69.832,13.520 70.853,14.015 C71.841,14.477 72.566,15.997 72.566,17.847 C72.566,21.315 70.919,23.131 68.779,23.131 C67.988,23.131 67.066,22.900 66.374,22.702 C66.111,25.972 68.120,29.308 69.931,29.308 C72.673,29.308 74.249,26.560 75.069,24.504 C74.642,23.897 74.374,23.108 74.374,22.074 C74.374,19.201 77.272,14.015 79.643,14.015 C82.047,14.015 85.373,13.718 85.373,16.228 C85.373,18.705 82.212,21.843 81.652,21.843 ZM69.602,16.492 C67.889,16.492 66.770,19.135 66.440,22.008 C70.623,23.792 71.281,16.492 69.602,16.492 ZM52.614,16.234 C52.614,19.207 46.192,16.267 46.192,14.616 C46.192,12.931 47.608,12.997 49.255,12.997 C50.868,12.997 52.614,14.979 52.614,16.234 ZM73.984,10.051 C71.317,10.877 65.488,11.802 60.120,12.231 C59.296,16.889 58.374,22.372 58.374,25.609 C58.374,34.395 61.239,35.122 59.263,35.122 C57.287,35.122 54.323,31.257 54.323,24.056 C54.323,20.687 54.949,16.360 55.608,12.463 C54.093,12.496 52.710,12.430 51.590,12.297 C48.330,11.901 45.991,10.316 44.345,9.192 C43.653,8.730 44.015,8.301 44.477,8.400 C47.737,9.060 51.886,9.358 56.135,9.490 L56.332,8.499 C56.826,5.889 57.222,3.908 57.222,3.181 C57.222,0.010 61.239,2.058 61.239,4.535 C61.239,5.196 61.042,6.550 60.778,8.400 L60.581,9.523 C66.245,9.490 71.481,9.259 74.050,9.259 C75.005,9.292 74.808,9.787 73.984,10.051 ZM43.760,7.244 C43.003,7.244 41.290,5.163 38.655,5.163 C32.760,5.163 23.342,14.676 26.701,14.676 C28.216,14.676 31.674,12.430 37.075,12.430 C44.155,12.430 45.143,15.898 45.143,18.474 C45.143,27.657 34.473,34.197 28.051,34.197 C25.910,34.197 22.354,32.215 22.354,28.284 C22.354,26.170 24.461,26.534 24.461,28.218 C24.461,29.738 26.404,30.134 27.392,30.134 C31.344,30.134 39.545,24.188 39.545,18.705 C39.545,16.261 39.149,14.246 36.844,14.246 C31.542,14.246 27.425,17.153 26.536,17.153 C24.791,17.153 22.979,15.369 22.979,13.949 C22.979,8.664 32.958,-0.089 39.347,-0.089 C43.793,-0.089 45.407,7.244 43.760,7.244 ZM23.396,36.372 C22.638,36.372 20.926,34.291 18.291,34.291 C12.396,34.291 2.977,43.804 6.336,43.804 C7.851,43.804 11.309,41.558 16.710,41.558 C23.791,41.558 24.779,45.026 24.779,47.602 C24.779,56.785 14.109,63.325 7.687,63.325 C5.546,63.325 1.989,61.343 1.989,57.413 C1.989,55.299 4.097,55.662 4.097,57.346 C4.097,58.866 6.040,59.262 7.028,59.262 C10.980,59.262 19.180,53.317 19.180,47.834 C19.180,45.389 18.785,43.374 16.480,43.374 C11.178,43.374 7.061,46.281 6.172,46.281 C4.426,46.281 2.615,44.498 2.615,43.077 C2.615,37.792 12.594,29.039 18.983,29.039 C23.429,29.039 25.042,36.372 23.396,36.372 ZM14.654,77.668 C16.696,72.713 18.441,67.824 19.396,64.852 C13.732,67.098 7.606,70.104 7.211,73.407 C7.079,74.629 5.004,73.275 5.235,71.326 C5.927,65.116 18.968,62.407 22.261,60.492 C22.294,57.651 26.938,58.708 27.267,61.218 C27.596,63.861 26.839,78.328 27.596,84.373 C28.815,93.688 31.943,94.084 29.836,94.348 C27.761,94.612 23.743,90.979 22.755,83.349 C22.426,80.773 22.294,77.668 22.261,74.563 C21.471,75.025 20.219,75.785 18.704,76.710 C15.279,85.892 10.438,96.594 6.684,96.165 C2.436,95.669 1.678,93.588 1.975,91.012 C2.502,86.421 8.956,81.334 14.654,77.668 ZM22.261,73.275 C22.228,70.764 22.261,68.287 22.294,66.206 C21.701,68.221 20.680,71.326 19.396,74.827 C20.582,74.166 21.537,73.638 22.261,73.275 ZM4.280,94.117 C6.816,94.414 10.471,87.478 13.699,80.013 C8.561,83.547 3.226,87.973 2.864,91.177 C2.864,91.177 2.502,93.919 4.280,94.117 ZM25.234,42.543 C25.234,40.858 26.650,40.924 28.297,40.924 C29.910,40.924 31.656,42.906 31.656,44.161 C31.656,47.134 25.234,44.194 25.234,42.543 ZM25.860,51.962 C25.860,48.131 26.222,46.744 26.222,45.918 C26.222,44.464 30.371,45.753 30.371,47.404 C30.371,48.593 30.174,50.575 30.174,51.996 C30.174,55.530 30.865,57.743 31.425,58.998 C32.365,58.492 33.799,55.603 34.662,53.603 C34.248,53.000 33.991,52.218 33.991,51.203 C33.991,48.329 36.890,43.143 39.261,43.143 C41.665,43.143 44.991,42.846 44.991,45.356 C44.991,47.834 41.829,50.972 41.270,50.972 C40.677,50.972 42.060,46.314 41.533,46.314 C38.997,46.314 36.692,52.755 38.635,52.755 C39.491,52.755 44.530,52.689 44.530,55.596 C44.530,58.536 39.228,63.259 37.285,63.259 C35.342,63.259 34.090,61.541 34.946,61.541 C36.527,61.541 41.072,56.653 41.072,55.464 C41.072,55.464 37.332,56.029 35.290,54.282 C34.232,57.126 32.373,61.178 30.734,61.178 C30.701,61.178 30.701,61.178 30.668,61.178 C26.387,61.178 25.860,55.001 25.860,51.962 ZM32.663,73.506 C33.914,73.506 35.594,73.506 35.594,74.860 C35.594,75.587 35.363,78.262 35.133,81.929 C35.890,78.725 36.944,75.322 37.768,74.464 C38.854,73.374 42.115,74.001 42.543,74.298 C46.725,77.106 46.528,91.772 39.282,91.772 C37.372,91.772 35.528,90.550 37.372,90.550 C41.456,90.550 40.863,75.653 39.744,75.653 C37.669,75.653 35.561,84.241 34.869,87.379 C34.804,89.030 34.771,90.781 34.771,92.531 C34.771,101.053 37.274,102.870 35.627,102.870 C28.909,102.870 30.259,73.506 32.663,73.506 ZM56.533,71.254 C58.146,71.254 59.892,73.236 59.892,74.491 C59.892,77.464 53.470,74.524 53.470,72.872 C53.470,71.188 54.886,71.254 56.533,71.254 ZM58.608,77.734 C58.608,78.923 58.410,80.905 58.410,82.325 C58.410,85.859 59.101,88.072 59.661,89.327 C60.439,88.909 61.553,86.862 62.403,85.034 C62.291,84.311 62.228,83.567 62.228,82.820 C62.228,79.220 64.039,76.016 65.060,75.025 C66.048,74.001 68.748,73.770 69.473,74.497 C70.164,75.190 71.613,78.956 70.592,78.956 C69.572,78.956 69.209,76.049 68.617,76.049 C66.410,76.049 65.455,89.261 68.485,89.261 C71.457,89.261 72.765,85.107 73.340,83.268 C73.968,79.096 76.291,74.067 80.404,74.067 C83.796,74.067 86.200,74.067 86.200,78.890 C86.200,79.352 85.015,79.749 85.015,79.022 C85.015,78.262 84.784,75.587 83.565,75.587 C80.338,75.587 77.473,81.466 77.473,87.544 C77.473,88.766 77.605,90.748 78.593,90.748 C79.581,90.748 81.655,83.844 81.655,82.127 C81.655,81.466 81.655,80.277 83.631,80.277 C85.640,80.277 86.464,81.202 86.464,81.896 C86.464,82.094 86.464,82.259 86.464,82.424 C86.562,84.670 86.365,91.012 87.452,91.012 C87.791,91.012 88.833,88.503 89.836,85.861 C89.764,85.122 89.720,84.343 89.720,83.514 C89.720,80.145 90.346,75.818 91.005,71.920 C89.490,71.953 88.107,71.887 86.987,71.755 C83.727,71.359 81.388,69.773 79.742,68.650 C79.050,68.188 79.412,67.758 79.874,67.857 C83.134,68.518 87.283,68.815 91.532,68.947 L91.729,67.957 C92.223,65.347 92.319,64.867 92.319,64.140 C92.319,60.969 96.337,63.017 96.337,65.494 C96.337,66.155 96.439,66.008 96.175,67.857 L95.978,68.981 C101.642,68.947 106.878,68.716 109.447,68.716 C110.402,68.749 110.205,69.245 109.381,69.509 C106.714,70.335 100.885,71.260 95.517,71.689 C94.693,76.346 93.771,81.829 93.771,85.067 C93.771,93.853 96.636,94.579 94.660,94.579 C93.128,94.579 91.007,92.245 90.130,87.842 C89.053,90.403 87.786,92.704 86.595,93.126 C86.496,93.192 86.299,93.225 86.068,93.225 C82.973,93.225 82.215,86.784 81.985,86.784 C81.721,86.784 80.470,91.805 77.868,91.805 C75.458,91.805 73.476,90.298 73.196,86.428 C72.105,88.955 70.334,91.739 67.629,91.739 C65.284,91.739 63.546,89.492 62.736,86.580 C61.672,89.023 60.253,91.508 58.970,91.508 C58.937,91.508 58.937,91.508 58.904,91.508 C54.623,91.508 54.096,85.331 54.096,82.292 C54.096,78.460 54.458,77.073 54.458,76.247 C54.458,74.794 58.608,76.082 58.608,77.734 ZM99.763,71.554 C101.376,71.554 103.122,73.536 103.122,74.791 C103.122,77.764 96.700,74.824 96.700,73.173 C96.700,71.488 98.116,71.554 99.763,71.554 ZM101.837,78.034 C101.837,79.223 101.640,81.205 101.640,82.625 C101.640,86.160 102.331,88.373 102.891,89.628 C103.936,89.066 105.588,85.564 106.390,83.607 C105.782,81.420 105.392,78.831 105.392,75.851 C105.392,75.223 104.963,73.968 106.248,73.968 C108.520,73.968 109.706,75.322 109.706,77.007 C109.706,81.598 110.694,85.067 111.583,87.478 C112.538,85.100 114.514,81.037 115.008,79.022 C116.325,74.100 115.765,74.232 115.996,73.275 C116.259,72.317 119.783,74.332 118.334,79.848 C116.885,85.397 114.020,91.408 114.020,91.408 C113.888,91.838 113.427,91.838 112.867,91.574 C112.801,91.673 112.670,91.739 112.439,91.739 C110.754,91.739 108.300,89.313 106.777,84.856 C105.722,87.702 103.850,91.808 102.200,91.808 C102.167,91.808 102.167,91.808 102.134,91.808 C97.852,91.808 97.326,85.631 97.326,82.592 C97.326,78.761 97.688,77.373 97.688,76.548 C97.688,75.094 101.837,76.382 101.837,78.034 ZM122.480,76.710 C123.270,74.497 125.279,74.265 126.827,74.265 C128.737,74.265 130.285,76.115 130.285,81.136 C130.285,86.190 128.605,91.937 124.291,91.937 C120.405,91.937 119.483,87.511 119.483,84.175 C119.483,81.070 120.076,77.238 122.480,76.710 ZM125.938,90.186 C128.012,90.186 130.120,76.280 126.596,76.280 C125.542,76.280 125.971,79.749 124.785,80.806 C124.818,84.802 123.896,90.186 125.938,90.186 ZM132.257,81.532 C132.257,78.659 135.155,73.473 137.526,73.473 C139.931,73.473 143.257,73.175 143.257,75.686 C143.257,78.163 140.095,81.301 139.535,81.301 C138.943,81.301 140.326,76.644 139.799,76.644 C137.263,76.644 134.958,83.085 136.901,83.085 C137.757,83.085 142.796,83.019 142.796,85.925 C142.796,88.865 137.494,93.588 135.550,93.588 C133.607,93.588 132.356,91.871 133.212,91.871 C134.793,91.871 139.338,86.982 139.338,85.793 C139.338,85.793 132.257,86.883 132.257,81.532 Z" class="cls-1"/>
</svg>
