<svg xmlns="http://www.w3.org/2000/svg" xmlns:xlink="http://www.w3.org/1999/xlink" preserveAspectRatio="xMidYMid" width="1273" height="176" viewBox="0 0 1273 176">
  <defs>
    <style>
      .cls-1 {
        fill: #fff;
        fill-rule: evenodd;
      }
    </style>
  </defs>
  <path d="M1238.048,89.740 C1236.068,89.740 1240.688,74.231 1238.928,74.231 C1230.458,74.231 1222.759,95.680 1229.248,95.680 C1232.108,95.680 1248.938,95.460 1248.938,105.140 C1248.938,114.929 1231.228,130.659 1224.739,130.659 C1218.249,130.659 1214.069,124.939 1216.929,124.939 C1222.209,124.939 1237.388,108.659 1237.388,104.700 C1237.388,104.700 1213.739,108.329 1213.739,90.510 C1213.739,80.941 1223.419,63.671 1231.338,63.671 C1239.368,63.671 1250.478,62.681 1250.478,71.041 C1250.478,79.291 1239.918,89.740 1238.048,89.740 ZM1187.132,125.159 C1174.152,125.159 1171.073,110.419 1171.073,99.310 C1171.073,88.970 1173.052,76.211 1181.082,74.451 C1183.722,67.081 1190.432,66.311 1195.602,66.311 C1201.981,66.311 1207.151,72.471 1207.151,89.190 C1207.151,106.020 1201.541,125.159 1187.132,125.159 ZM1192.632,119.329 C1199.561,119.329 1206.601,73.021 1194.832,73.021 C1191.312,73.021 1192.742,84.570 1188.782,88.090 C1188.892,101.400 1185.812,119.329 1192.632,119.329 ZM1152.827,123.399 C1152.387,124.829 1150.847,124.829 1148.977,123.949 C1148.757,124.279 1148.317,124.499 1147.547,124.499 C1141.853,124.499 1133.514,116.280 1128.441,101.113 C1124.883,110.559 1118.753,123.729 1113.347,123.729 C1113.237,123.729 1113.237,123.729 1113.127,123.729 C1098.827,123.729 1097.067,103.160 1097.067,93.040 C1097.067,80.281 1098.277,75.661 1098.277,72.911 C1098.277,68.071 1112.137,72.361 1112.137,77.861 C1112.137,81.821 1111.477,88.420 1111.477,93.150 C1111.477,104.920 1113.787,112.289 1115.657,116.469 C1119.063,114.641 1124.416,103.461 1127.162,96.868 C1125.224,89.709 1124.008,81.250 1124.008,71.591 C1124.008,69.501 1122.578,65.321 1126.868,65.321 C1134.457,65.321 1138.417,69.831 1138.417,75.441 C1138.417,90.730 1141.717,102.280 1144.687,110.309 C1147.877,102.390 1154.476,88.860 1156.126,82.151 C1160.526,65.761 1158.656,66.201 1159.426,63.011 C1160.306,59.821 1172.076,66.531 1167.236,84.900 C1162.396,103.380 1152.827,123.399 1152.827,123.399 ZM1115.573,54.899 C1116.114,56.008 1116.426,57.099 1116.426,58.061 C1116.426,65.562 1104.117,61.760 1098.149,57.085 C1095.766,57.326 1093.383,57.543 1091.026,57.731 C1088.276,73.241 1085.196,91.500 1085.196,102.280 C1085.196,131.539 1094.765,133.958 1088.166,133.958 C1083.050,133.958 1075.953,126.224 1073.019,111.579 C1069.426,120.088 1065.198,127.717 1061.228,129.119 C1060.898,129.339 1060.238,129.449 1059.468,129.449 C1049.129,129.449 1046.599,107.999 1045.829,107.999 C1044.949,107.999 1040.769,124.719 1032.079,124.719 C1024.034,124.719 1017.408,119.715 1016.469,106.841 C1012.823,115.247 1006.906,124.499 997.879,124.499 C990.054,124.499 984.234,117.038 981.526,107.346 C977.974,115.473 973.239,123.729 968.959,123.729 C968.849,123.729 968.849,123.729 968.739,123.729 C954.440,123.729 952.680,103.160 952.680,93.040 C952.680,80.281 953.890,75.661 953.890,72.911 C953.890,68.071 967.749,72.361 967.749,77.861 C967.749,81.821 967.089,88.420 967.089,93.150 C967.089,104.920 969.399,112.289 971.269,116.469 C973.860,115.079 977.575,108.280 980.415,102.203 C980.037,99.787 979.840,97.297 979.840,94.800 C979.840,82.810 985.890,72.141 989.300,68.841 C992.600,65.431 1001.619,64.661 1004.039,67.081 C1006.349,69.391 1011.189,81.931 1007.779,81.931 C1004.369,81.931 1003.159,72.251 1001.179,72.251 C993.809,72.251 990.620,116.249 1000.739,116.249 C1010.592,116.249 1014.974,102.611 1016.915,96.417 C1018.986,82.502 1026.775,65.651 1040.549,65.651 C1051.879,65.651 1059.908,65.651 1059.908,81.711 C1059.908,83.250 1055.948,84.570 1055.948,82.151 C1055.948,79.621 1055.179,70.711 1051.109,70.711 C1040.329,70.711 1030.759,90.290 1030.759,110.529 C1030.759,114.599 1031.199,121.199 1034.499,121.199 C1037.799,121.199 1044.729,98.210 1044.729,92.490 C1044.729,90.290 1044.729,86.330 1051.329,86.330 C1058.038,86.330 1060.788,89.410 1060.788,91.720 C1060.788,92.380 1060.788,92.930 1060.788,93.480 C1061.118,100.960 1060.458,122.079 1064.088,122.079 C1065.219,122.079 1068.697,113.747 1072.042,104.957 C1071.799,102.490 1071.666,99.875 1071.666,97.110 C1071.666,85.890 1073.756,71.481 1075.956,58.501 C1070.896,58.611 1066.276,58.391 1062.537,57.951 C1051.647,56.632 1043.837,51.352 1038.338,47.612 C1036.028,46.072 1037.238,44.642 1038.778,44.972 C1049.667,47.172 1063.527,48.162 1077.716,48.602 L1078.376,45.302 C1080.026,36.612 1081.346,30.013 1081.346,27.593 C1081.346,17.033 1094.765,23.853 1094.765,32.102 C1094.765,34.302 1094.105,38.812 1093.225,44.972 L1092.565,48.712 C1093.896,48.704 1095.217,48.692 1096.531,48.679 C1098.365,47.190 1101.622,47.282 1105.207,47.282 C1106.608,47.282 1108.039,47.731 1109.389,48.465 C1121.393,48.201 1131.612,47.832 1137.554,47.832 C1140.744,47.942 1140.084,49.592 1137.334,50.472 C1132.525,51.956 1124.630,53.534 1115.573,54.899 ZM950.590,52.672 C950.590,47.062 955.320,47.282 960.819,47.282 C966.209,47.282 972.039,53.882 972.039,58.061 C972.039,67.961 950.590,58.171 950.590,52.672 ZM946.966,133.518 C940.807,133.848 929.917,123.509 929.037,103.490 C928.047,83.360 934.977,37.712 934.647,32.322 C934.317,23.413 948.286,28.583 948.616,35.402 C948.946,42.332 942.237,91.170 942.897,107.120 C944.106,131.539 953.236,133.298 946.966,133.518 ZM903.203,124.609 C896.824,124.609 890.664,120.539 896.824,120.539 C910.463,120.539 908.483,70.931 904.743,70.931 C897.814,70.931 890.774,99.530 888.464,109.979 C888.244,115.479 888.134,121.309 888.134,127.139 C888.134,155.518 896.494,161.567 890.994,161.567 C868.555,161.567 873.065,63.781 881.094,63.781 C885.274,63.781 890.884,63.781 890.884,68.291 C890.884,70.711 890.114,79.621 889.344,91.830 C891.874,81.161 895.394,69.831 898.144,66.971 C901.774,63.341 912.663,65.431 914.093,66.421 C928.062,75.771 927.402,124.609 903.203,124.609 ZM848.002,96.560 C846.902,87.980 846.462,77.641 846.352,67.301 C843.713,68.841 839.533,71.371 834.473,74.451 C823.033,105.030 806.864,140.668 794.325,139.238 C780.135,137.588 777.605,130.659 778.595,122.079 C780.355,106.790 801.914,89.850 820.943,77.641 C827.763,61.141 833.593,44.862 836.783,34.962 C817.864,42.442 797.404,52.452 796.084,63.451 C795.644,67.521 788.715,63.011 789.485,56.522 C791.795,35.842 835.353,26.823 846.352,20.443 C846.462,10.983 861.972,14.503 863.072,22.863 C864.172,31.663 861.642,79.841 864.172,99.970 C868.242,130.989 878.691,132.309 871.651,133.188 C864.722,134.068 851.302,121.969 848.002,96.560 ZM781.565,122.629 C781.565,122.629 780.355,131.759 786.295,132.419 C794.765,133.408 806.974,110.309 817.754,85.450 C800.594,97.220 782.775,111.959 781.565,122.629 ZM836.783,68.181 C840.743,65.981 843.933,64.221 846.352,63.011 C846.242,54.652 846.352,46.402 846.462,39.472 C844.483,46.182 841.073,56.522 836.783,68.181 ZM755.544,115.719 C748.319,147.475 759.396,153.014 751.275,151.042 C743.256,149.252 733.005,132.075 739.072,106.081 C745.038,79.907 770.335,23.848 771.849,16.816 C774.628,5.269 790.688,16.922 788.660,25.788 C786.592,34.795 760.431,95.025 755.544,115.719 ZM700.427,74.231 C691.957,74.231 684.258,95.680 690.747,95.680 C693.607,95.680 710.437,95.460 710.437,105.140 C710.437,114.929 692.727,130.659 686.238,130.659 C679.748,130.659 675.568,124.939 678.428,124.939 C683.708,124.939 698.887,108.659 698.887,104.700 C698.887,104.700 687.038,106.516 680.115,101.258 C675.995,112.964 669.926,127.155 664.363,129.119 C664.033,129.339 663.373,129.449 662.603,129.449 C652.264,129.449 649.734,107.999 648.964,107.999 C648.084,107.999 643.904,124.719 635.214,124.719 C626.525,124.719 619.485,118.889 619.485,103.600 C619.485,89.190 627.405,65.651 643.684,65.651 C655.013,65.651 663.043,65.651 663.043,81.711 C663.043,83.250 659.083,84.570 659.083,82.151 C659.083,79.621 658.313,70.711 654.243,70.711 C643.464,70.711 633.894,90.290 633.894,110.529 C633.894,114.599 634.334,121.199 637.634,121.199 C640.934,121.199 647.864,98.210 647.864,92.490 C647.864,90.290 647.864,86.330 654.463,86.330 C661.173,86.330 663.923,89.410 663.923,91.720 C663.923,92.380 663.923,92.930 663.923,93.480 C664.253,100.960 663.593,122.079 667.223,122.079 C668.627,122.079 673.651,109.230 677.546,98.612 C676.123,96.590 675.238,93.952 675.238,90.510 C675.238,80.941 684.918,63.671 692.837,63.671 C700.867,63.671 711.977,62.681 711.977,71.041 C711.977,79.291 701.417,89.740 699.547,89.740 C697.567,89.740 702.187,74.231 700.427,74.231 ZM610.486,125.159 C596.076,125.159 596.296,95.240 596.296,95.240 C596.296,95.240 587.497,123.179 583.867,123.179 C580.237,123.179 571.217,121.529 571.217,111.739 C571.217,101.840 577.047,68.841 573.417,68.841 C567.037,68.841 562.308,109.099 558.788,121.969 C559.558,124.939 559.668,125.929 556.918,125.929 C549.133,125.929 545.920,117.914 544.636,108.563 C540.781,115.285 534.992,121.529 526.680,121.529 C511.391,121.529 502.261,107.779 502.261,96.780 C502.261,82.480 509.521,69.281 513.920,65.321 C518.430,61.361 528.990,62.021 532.400,63.671 C535.700,65.211 538.119,70.271 538.119,76.431 C538.119,87.980 532.620,94.030 525.470,94.030 C522.830,94.030 519.750,93.260 517.440,92.600 C516.560,103.490 523.270,114.599 529.320,114.599 C536.328,114.599 541.066,109.228 544.131,103.639 C543.590,96.166 543.938,88.581 543.938,84.020 C543.938,82.370 542.618,82.370 542.618,80.721 C542.618,77.421 558.128,79.291 558.128,85.670 C558.128,92.050 556.918,99.530 556.918,107.450 C556.918,109.099 556.918,110.529 557.028,111.739 C559.338,97.990 566.047,62.901 575.617,62.901 C594.536,62.901 584.527,107.340 585.847,107.340 C587.057,107.340 594.536,80.501 600.146,80.501 C605.756,80.501 612.136,81.931 612.136,87.870 C612.136,91.500 610.706,97.000 610.706,104.260 C610.706,120.209 615.105,125.159 610.486,125.159 ZM528.220,71.921 C522.500,71.921 518.760,80.721 517.660,90.290 C531.630,96.230 533.830,71.921 528.220,71.921 ZM496.549,57.731 C493.799,73.241 490.719,91.500 490.719,102.280 C490.719,131.539 500.289,133.958 493.689,133.958 C487.090,133.958 477.190,121.089 477.190,97.110 C477.190,85.890 479.280,71.481 481.480,58.501 C476.420,58.611 471.800,58.391 468.060,57.951 C457.171,56.632 449.361,51.352 443.861,47.612 C441.551,46.072 442.761,44.642 444.301,44.972 C455.191,47.172 469.050,48.162 483.240,48.602 L483.900,45.302 C485.550,36.612 486.870,30.013 486.870,27.593 C486.870,17.033 500.289,23.853 500.289,32.102 C500.289,34.302 499.629,38.812 498.749,44.972 L498.089,48.712 C517.008,48.602 534.498,47.832 543.077,47.832 C546.267,47.942 545.607,49.592 542.857,50.472 C533.948,53.222 514.478,56.302 496.549,57.731 ZM451.131,63.671 C459.160,63.671 470.270,62.681 470.270,71.041 C470.270,79.291 459.710,89.740 457.840,89.740 C455.861,89.740 460.480,74.231 458.720,74.231 C450.251,74.231 442.551,95.680 449.041,95.680 C451.901,95.680 468.730,95.460 468.730,105.140 C468.730,114.929 451.021,130.659 444.531,130.659 C438.041,130.659 433.861,124.939 436.721,124.939 C442.001,124.939 457.180,108.659 457.180,104.700 C457.180,104.700 444.681,106.616 437.857,100.815 C434.317,110.280 428.113,123.729 422.650,123.729 C422.540,123.729 422.540,123.729 422.430,123.729 C408.131,123.729 406.371,103.160 406.371,93.040 C406.371,80.281 407.581,75.661 407.581,72.911 C407.581,68.071 421.440,72.361 421.440,77.861 C421.440,81.821 420.780,88.420 420.780,93.150 C420.780,104.920 423.090,112.289 424.960,116.469 C428.098,114.786 432.885,105.171 435.767,98.512 C434.386,96.503 433.531,93.894 433.531,90.510 C433.531,80.941 443.211,63.671 451.131,63.671 ZM404.281,52.672 C404.281,47.062 409.011,47.282 414.511,47.282 C419.901,47.282 425.730,53.882 425.730,58.061 C425.730,67.961 404.281,58.171 404.281,52.672 ZM341.164,65.871 C346.224,65.871 357.773,58.391 375.812,58.391 C399.461,58.391 402.761,69.941 402.761,78.521 C402.761,109.099 367.123,130.879 345.674,130.879 C338.524,130.879 326.644,124.279 326.644,111.189 C326.644,104.150 333.684,105.360 333.684,110.969 C333.684,116.029 340.174,117.349 343.474,117.349 C356.673,117.349 384.062,97.550 384.062,79.291 C384.062,71.151 382.742,64.441 375.042,64.441 C357.333,64.441 343.584,74.121 340.614,74.121 C334.784,74.121 328.734,68.181 328.734,63.451 C328.734,45.852 362.063,16.703 383.402,16.703 C398.252,16.703 403.641,41.122 398.142,41.122 C395.612,41.122 389.892,34.192 381.092,34.192 C361.403,34.192 329.944,65.871 341.164,65.871 ZM271.544,115.719 C264.319,147.475 275.396,153.014 267.275,151.042 C259.256,149.252 249.005,132.075 255.072,106.081 C261.038,79.907 286.335,23.848 287.849,16.816 C290.628,5.269 306.688,16.922 304.660,25.788 C302.592,34.795 276.431,95.025 271.544,115.719 ZM214.598,74.231 C206.128,74.231 198.428,95.680 204.918,95.680 C207.778,95.680 224.607,95.460 224.607,105.140 C224.607,114.929 206.898,130.659 200.408,130.659 C193.918,130.659 189.739,124.939 192.598,124.939 C197.878,124.939 213.058,108.659 213.058,104.700 C213.058,104.700 200.391,106.643 193.598,100.699 C190.227,109.351 183.539,121.529 171.930,121.529 C156.641,121.529 147.511,107.779 147.511,96.780 C147.511,82.480 154.771,69.281 159.171,65.321 C163.681,61.361 174.240,62.021 177.650,63.671 C180.950,65.211 183.370,70.271 183.370,76.431 C183.370,87.980 177.870,94.030 170.720,94.030 C168.080,94.030 165.000,93.260 162.691,92.600 C161.811,103.490 168.520,114.599 174.570,114.599 C183.708,114.599 188.986,105.469 191.729,98.629 C190.298,96.605 189.409,93.961 189.409,90.510 C189.409,80.941 199.088,63.671 207.008,63.671 C215.038,63.671 226.147,62.681 226.147,71.041 C226.147,79.291 215.588,89.740 213.718,89.740 C211.738,89.740 216.358,74.231 214.598,74.231 ZM173.470,71.921 C167.750,71.921 164.011,80.721 162.911,90.290 C176.880,96.230 179.080,71.921 173.470,71.921 ZM141.799,57.731 C139.050,73.241 135.970,91.500 135.970,102.280 C135.970,131.539 145.539,133.958 138.940,133.958 C133.561,133.958 125.991,125.409 123.374,109.264 C119.939,116.722 115.610,123.729 111.667,123.729 C111.557,123.729 111.557,123.729 111.447,123.729 C97.148,123.729 95.388,103.160 95.388,93.040 C95.388,80.281 96.598,75.661 96.598,72.911 C96.598,68.071 110.457,72.361 110.457,77.861 C110.457,81.821 109.797,88.420 109.797,93.150 C109.797,104.920 112.107,112.289 113.977,116.469 C116.430,115.153 119.891,108.989 122.663,103.179 C122.518,101.242 122.440,99.220 122.440,97.110 C122.440,85.890 124.530,71.481 126.730,58.501 C122.299,58.598 118.206,58.441 114.746,58.105 C114.681,67.930 93.298,58.163 93.298,52.672 C93.298,51.849 93.402,51.155 93.593,50.564 C91.953,49.541 90.462,48.530 89.112,47.612 C86.802,46.072 88.012,44.642 89.552,44.972 C100.441,47.172 114.301,48.162 128.490,48.602 L129.150,45.302 C130.800,36.612 132.120,30.013 132.120,27.593 C132.120,17.033 145.539,23.853 145.539,32.102 C145.539,34.302 144.879,38.812 143.999,44.972 L143.339,48.712 C162.259,48.602 179.748,47.832 188.328,47.832 C191.517,47.942 190.858,49.592 188.108,50.472 C179.198,53.222 159.729,56.302 141.799,57.731 ZM87.158,41.122 C84.628,41.122 78.909,34.192 70.109,34.192 C50.420,34.192 18.961,65.871 30.181,65.871 C35.240,65.871 46.790,58.391 64.829,58.391 C88.478,58.391 91.778,69.941 91.778,78.521 C91.778,109.099 56.140,130.879 34.690,130.879 C27.541,130.879 15.661,124.279 15.661,111.189 C15.661,104.150 22.701,105.360 22.701,110.969 C22.701,116.029 29.191,117.349 32.491,117.349 C45.690,117.349 73.079,97.550 73.079,79.291 C73.079,71.151 71.759,64.441 64.059,64.441 C46.350,64.441 32.601,74.121 29.631,74.121 C23.801,74.121 17.751,68.181 17.751,63.451 C17.751,45.852 51.080,16.703 72.419,16.703 C87.268,16.703 92.658,41.122 87.158,41.122 Z" class="cls-1"/>
</svg>
